<?xml version="1.0" encoding="UTF-8"?>
<svg xmlns="http://www.w3.org/2000/svg" xmlns:xlink="http://www.w3.org/1999/xlink" width="57.49pt" height="92.923pt" viewBox="0 0 57.49 92.923" version="1.1">
<defs>
<clipPath id="clip1">
  <path d="M 0 0 L 57.488281 0 L 57.488281 92.921875 L 0 92.921875 Z M 0 0 "/>
</clipPath>
</defs>
<g id="surface1">
<g clip-path="url(#clip1)" clip-rule="nonzero">
<path style="fill:none;stroke-width:0.79701;stroke-linecap:butt;stroke-linejoin:miter;stroke:rgb(0%,0%,0%);stroke-opacity:1;stroke-miterlimit:10;" d="M 0.0004375 0.0005625 L 0.0004375 48.723219 C 0.0004375 53.125563 2.230906 59.481031 4.977 62.918531 L 23.367625 85.902906 C 26.117625 89.340406 30.574656 89.340406 33.324656 85.902906 L 51.715281 62.918531 C 54.465281 59.481031 56.691844 53.125563 56.691844 48.723219 L 56.691844 7.969313 C 56.691844 3.566969 54.172312 2.524 51.059031 5.637281 L 5.637156 51.059156 C 2.523875 54.168531 3.566844 56.691969 7.969188 56.691969 L 48.723094 56.691969 C 53.125437 56.691969 54.172312 54.168531 51.059031 51.059156 L 5.637156 5.637281 C 2.523875 2.524 3.566844 0.0005625 7.969188 0.0005625 L 56.691844 0.0005625 " transform="matrix(1,0,0,-1,0.398,92.524)"/>
</g>
</g>
</svg>
